<?xml version="1.0" encoding="UTF-8"?>
<svg id="Layer_1" data-name="Layer 1" xmlns="http://www.w3.org/2000/svg" viewBox="0 0 546.35 494.16">
  <defs>
    <style>
      .cls-1 {
        fill: #4cb85b;
      }

      .cls-2 {
        fill: #8e5a00;
      }

      .cls-3 {
        fill: #f1f2f2;
      }

      .cls-4 {
        fill: #f99d3f;
      }

      .cls-5 {
        fill: #f4b743;
      }

      .cls-6 {
        fill: #db453e;
      }
    </style>
  </defs>
  <path class="cls-2" d="M532.65,310.19c8.35,6.6,13.71,16.82,13.71,28.29h0c0,19.91-16.14,36.04-36.04,36.04H36.05C16.14,374.52,0,358.38,0,338.48H0c0-11.85,5.72-22.36,14.54-28.93l518.1,.64Z"/>
  <path class="cls-6" d="M518.45,223.88c15.41,0,27.9,12.49,27.9,27.9h0c0,15.41-12.49,27.9-27.9,27.9H27.9c-15.41,0-27.9-12.49-27.9-27.9H0c0-15.41,12.49-27.9,27.9-27.9h490.56Z"/>
  <path class="cls-4" d="M534.73,380.97v8.42c0,57.86-46.91,104.77-104.77,104.77H116.4c-57.86,0-104.77-46.91-104.77-104.77v-8.42c0-5.86,4.75-10.61,10.61-10.61h501.88c5.86,0,10.61,4.75,10.61,10.61Z"/>
  <g>
    <path class="cls-3" d="M25.28,398.92c6.1,2.21,9.52,2.54,16.07,3.15-.75,7.35-.9,11.2-.41,18.26,.18,.04,.27,.06,.46,.1,.12-7.44,1.27-10.83,3.93-14.45,2.57-3.51,5.91-5.32,9.59-5.1,3,.18,5.47,1.35,8.04,3.87-.93,9.3-1,14.16-.43,23.09-.27-.04-.4-.06-.66-.1-2.77-3.42-4.54-4.66-7.54-5.14-3.19-.51-6.1,.7-7.34,3.07-1.93,3.66-1.99,9.77,2.44,20.85,1.36,3.42,2.94,6.79,5.53,11.29-5.76-3.02-8.53-4.74-13.54-8.85-10.44-16.38-14.97-30.76-16.13-50.05Z"/>
    <path class="cls-3" d="M85.19,444.93c1.94,8.65,8.24,13.37,16.88,13.37,7.77,0,12.2-2.85,15.03-9.62h.68c.87,5.64,1.41,8.39,2.64,13.68-4.16,6.67-9.38,9.46-18.3,9.27-18.46-.39-31.67-19.35-34.61-35.74-3-16.76,8.6-33.97,26.5-33.73,18.36,.25,24.1,19.23,25.33,34.51,.26,3.27,.4,5.16,.39,8.71-11.55,0-23-.02-34.54-.46Zm21.4-14.08c-1.79-7.43-5.24-10.81-12.21-10.83-7.07-.02-11.13,3.61-10.87,10.49,9.18,.5,13.87,.33,23.08,.33Z"/>
    <path class="cls-3" d="M126.17,404.65c6.75,0,10.13,0,16.88,0-.09,1.84-.13,2.79-.2,4.65-.1,2.9-.15,2.93-.74,8.99h.59c1.87-5.69,3.27-8.2,5.65-10.76,3.17-3.41,8.18-5.41,13.17-5.37,16.43,.15,19.31,20.95,19.89,33.45,.55,11.89,.04,35.83-16.93,36.03-6.85,.08-11.46-2.56-16.83-10.56-.23,0-.34,0-.57,0,1.62,4.69,2.54,8.1,3.77,12.65,.91,3.64,1.4,5.4,2.45,8.8h-17.17c-8.12-25.93-10.66-50.75-9.95-77.89Zm17.21,34.37c.86,10.17,5.64,15.89,11.71,15.89,6.26,0,9.5-6.29,8.83-16.36-.63-9.37-4.27-15.09-10.59-15.09-6.62,0-10.74,6.21-9.95,15.56Z"/>
    <path class="cls-3" d="M239.16,437.86c.35,10.71-2.82,20.41-4.81,25.77-1.99,5.36-10.55,8.02-19.08,8.02s-14.65-2.37-19.22-7.28c-6.05-6.51-9.17-18.27-9.44-26.63-.57-17.42,8-35.53,27.71-35.57,19.29-.04,24.3,19.36,24.84,35.69Zm-35.69,2.22c.45,10.95,4.66,16.59,11.1,16.59,6.44,0,9.8-5.97,9.54-17.18-.23-9.92-3.53-15.3-10.35-15.3-7.01,0-10.71,5.74-10.29,15.88Z"/>
    <path class="cls-3" d="M284.57,429.05c-4.79-5.18-9.67-7.55-15.99-7.55-5.04,0-7.97,1.97-7.9,5.25,.06,3.03,2.21,4.43,8.48,5.42,9.67,1.53,17.6,8.67,17.52,18.87-.09,11.63-9.18,20.76-20.93,20.61-6.01-.08-11.1-1.37-18.08-5.2-.42-6.29-.61-9.59-.94-16.42,5.58,5.28,10.56,7.4,16.52,7.4,4.99,0,7.65-1.61,7.58-4.72-.03-1.55-.84-2.9-2.01-3.58-1.38-.79-1.42-.75-9.79-2.61-9.47-2.1-14.94-8.95-15.13-20.14-.21-12.48,8.87-24.68,22.33-24.22,6.67,.23,12.36,1.96,18.07,6.63,.13,8.28,.19,12.35,.27,20.25Z"/>
    <path class="cls-3" d="M313.5,394.46c.13,5.09-3.85,8.07-11.05,8.07-6.91,0-10.91-2.98-11.01-8.2-.1-5.34,3.68-8.2,10.65-8.2,7.67,0,11.27,2.61,11.41,8.32Zm-20.09,10.19c3.39,1.61,5.57,2.13,9.03,2.13,3.36,0,6.01-.64,9.53-2.13,.39,21.67,.42,43.34-.76,64.98-7.08,0-10.61,0-17.69,0,.42-21.66,.25-43.32-.11-64.98Z"/>
    <path class="cls-3" d="M362.25,405.26c.29,8.1,.35,12.34,.23,20.27-7.46,0-11.19,0-18.65,0,.14,6.69,.14,10.88-.21,18.24-.25,5.29-.05,8.17,.86,10.04,.84,1.75,2.76,2.85,5.07,2.85,3.75,0,7.01-1.82,10.26-6.08-.48,5.82-.77,8.65-1.46,14.09-5.3,5.13-9.96,6.97-16.71,6.97s-11.3-2.28-13.51-6.65c-1.99-3.94-2.45-9.27-2.08-20.87,.21-6.55,.39-10.81,.81-17.98-3.67,0-5.51,0-9.18,0,0-5.73-.02-8.66-.13-14.58,9.82-3.41,14.52-14.44,16.03-23.94,3.78,0,5.66,0,9.44,0,.22,7.05,.34,10.58,.56,17.64,7.47,0,11.2,0,18.67,0Z"/>
    <path class="cls-3" d="M420.54,437.85c-.66,8.38-4.63,19.59-10.88,25.78-5.4,5.35-12.91,8.02-21.44,8.02-8.25,0-13.82-2.38-17.09-7.28-3.63-5.44-5.18-15.1-4.7-26.63,.71-17.16,7.87-35.62,27.79-35.58,19.54,.04,27.68,18.55,26.33,35.7Zm-37.5,2.22c-.77,10.95,1.99,16.59,8.43,16.59,6.44,0,11.32-5.97,12.27-17.18,.84-9.93-2.54-15.3-9.35-15.3-7.01,0-10.64,5.74-11.35,15.88Z"/>
    <path class="cls-3" d="M428.39,404.64c6.79,0,10.19,.02,16.98,.02,.01,8.59-.15,13.09-1.01,21.5h.49c1.59-8.99,2.5-13.06,4.97-17.48,2.39-4.28,5.48-6.49,9.23-6.52,3.07-.02,5.7,1.06,8.62,3.46,.26,9.77,.04,14.87-1.04,24.34-.27,.01-.41,.02-.69,.03-2.31-3.1-4.06-4.15-7.24-4.1-3.37,.05-6.72,1.98-8.71,5.1-3.11,4.8-4.6,12.27-7.4,25.37-.86,4.04-1.72,8-3.14,13.28-6.92,0-10.39,0-17.31,0,5.91-21.25,6.86-43.08,6.25-64.99Z"/>
    <path class="cls-3" d="M484.15,471.3c-5.44,3.19-8.34,4.54-14.38,6.65,5.35-6.71,7.91-10.25,12.67-17.56,.75-19.28-5.66-38.07-11.97-55.96,7.44-.21,11.14-.38,18.48-.82,2.34,6.35,3.38,9.64,4.95,15.66,2.23,9.3,2.23,18.65,.21,26.9,.14-.04,.21-.07,.35-.11,3.45-9.31,6.46-18.81,9.4-28.29,2.05-6.25,2.85-9.53,4.25-15.61,6.94-.63,10.57-.89,17.03-3.23-8.69,27.36-22.98,50.17-40.98,72.37Z"/>
  </g>
  <polygon class="cls-5" points="194.2 305.66 359.48 426.74 513.72 315.85 471.37 310.19 194.2 305.66"/>
  <path class="cls-1" d="M5.27,270.62c-14.8,26.01,5.77,48.79,10.71,52.2,13.81,9.53,32.09,9.49,45.88-.08,13.9-9.57,32.26-9.57,46.16,0h0c13.9,9.58,32.26,9.58,46.16,0h0c13.9-9.57,32.26-9.57,46.16,0,13.9,9.57,32.27,9.56,46.16-.02h0c7.98-5.5,17.42-7.82,26.65-7.01h0s.01,0,.02,0,.01,0,.02,0h0c9.23-.81,18.67,1.51,26.65,7h0c13.89,9.59,32.26,9.6,46.16,.03,13.9-9.57,32.26-9.57,46.16,0h0c13.9,9.57,32.26,9.57,46.16,0h0c13.9-9.58,32.26-9.58,46.16,0,13.79,9.56,32.07,9.61,45.88,.08,4.94-3.41,25.51-26.19,10.71-52.2H5.27Z"/>
  <path class="cls-4" d="M362.1,232.49H46.5C20.82,232.49,0,211.67,0,185.99H0C0,83.27,83.27,0,185.99,0h174.37c102.72,0,185.99,83.27,185.99,185.99h0c0,25.68-20.82,46.5-46.5,46.5h-137.75Z"/>
  <g>
    <path class="cls-3" d="M74.03,118.91c-2.44-9.28-5.44-11.97-11.41-9.88-4.76,1.67-8.7,5.75-10.6,11.76-1.75,5.57-.32,7.62,5.25,8.41,15.47,2.2,13.13,26.51,12.67,37.45-.38,8.98,1.32,49.86-14.99,47.84-9.41-1.17-16.82-10.04-23.26-16.71-3.61-12.44-3.35-20.26-2.41-33.17,3.29,12.06,8.19,18.86,14.55,19.28,5.33,.36,8.38-4.13,8.71-11.24,.17-3.56-.43-6.45-1.57-7.78-1.33-1.55-2.57-.78-9.5-5.15-11.38-7.17-7.9-26.32-3.42-37.7,6.7-17.05,20.76-36.22,36.89-45.25,5.55-3.11,8.5-2.3,10.44,3.87-4.74,12.45-8.52,25.26-11.35,38.27Z"/>
    <path class="cls-3" d="M117.83,210.37c-.94-2.5-1.37-3.81-2.11-6.53-1.38-4.79-2.07-6.18-2.43-16.79-.26,.01-.39,.02-.65,.03-.9,9.79-.68,14.12-1.67,18.1-1.52,6.71-4.63,9.8-9.4,9.65-18.85-.58-25.69-22.97-26.23-38.05-.44-12.1,2.56-26.12,9.63-36.51,4.54-6.67,11.22-12.57,19.26-16.84,7.08-3.76,10.39-8.71,11.56-16.63,1.2-8.19-1.63-13.37-7.02-12.22-4.09,.87-9.25,4.7-14.37,10.43-4.55,5.09-7.34,9.32-11.65,18.05,2.23-13.01,5.29-25.87,9.23-38.46,7.86-10.5,16.01-22.94,28.91-27.02,7.21-2.28,12.22,2.06,13.63,11.81,1.8,12.46-.8,25.85-2.26,38.34-3.48,33.72-7,69.48,1.89,102.54-6.52,.04-9.78,.06-16.3,.11Zm-15.33-58.99c-6.43,5.61-8.92,10.5-8.96,19.71-.04,8.93,3.63,15.56,6.63,14.84,11.37-2.73,11.22-33.99,12.04-44.95-1.8,3.23-3.96,5.39-9.71,10.4Z"/>
    <path class="cls-3" d="M150.11,55.78c6.92-1,10.42-1.38,17.5-1.87-1.37,7.62-2,11.52-3.13,19.48-.86,6.02-1.52,9.96-3.28,20.33,.3-.02,.45-.02,.75-.04,1.76-10.46,4.4-21.05,9.39-30.43,5.23-9.85,11-14.93,16.71-14.93,6.41,0,10.78,6.48,12.54,17.77,2.32,14.83,.39,30.48-.43,45.44-1.47,32.75-3.09,66.04,1.4,98.6h-19.93c-4.6-26.13-3.68-52.53-2.83-78.95,.4-9.31,1.46-18.98,.45-28.03-.55-4.88-3.07-8.54-5.86-8.49-3.87,.07-7.9,5.9-10.24,14.9-1.42,5.62-2.26,11.77-2.82,24.76-.83,24.81-2.81,51.57,3.59,75.83-7.97,.02-11.96,.03-19.93,.07-12.12-48.75-3.6-105.83,6.13-154.43Z"/>
    <path class="cls-3" d="M268.67,210.12h-18.34c-.1-1.75-.14-2.66-.23-4.52-.2-4.38-.24-9.38,.42-21.08h-.66c-1.9,8.97-3.93,29.95-16.62,30.3-5.8,.16-12.71-5.15-17.7-16.71-8.93-20.67-8.71-47.24-8.05-68.96,.66-21.94,2.26-47.78,12.77-68.23,4.48-8.45,9.97-13.09,14.62-12.61,10.78,1.09,12.34,15.75,14.39,25.6h.52c-.22-10.01-.23-12-.02-17.32,.46-12.07,1.02-24.14,1.69-36.2h17.71c-.66,63.23-1.04,126.49-.5,189.73Zm-41.6-77.22c-.2,10.19,2.01,38.81,10.41,38.65,9.02-.17,12.29-31.07,12.38-41.82,.07-8.64-1.72-35.22-10.42-35.13-9.71,.1-12.16,27.93-12.36,38.3Z"/>
    <path class="cls-3" d="M348.51,210.12c-8.57,0-12.85,0-21.42,0,.56-14.61-.45-29.11-1.48-43.67-.99-12.42-1.52-24.89-2.15-37.3-.52-10.22-1.24-20.48-1.98-30.71h-.43c.32,22.71-.65,45.34-1.93,68.01-1.2,14.63-2.36,29.22-5.07,43.67h-21.21c-4.81-52.42-11.87-104.6-18.51-156.81h19.29c1.73,12.3,3.39,24.61,4.97,36.93,3.19,25.28,4.33,50.77,5.23,76.22h.66c.52-25.42,.78-50.82,1.97-76.22,.61-12.3,1.09-24.61,1.41-36.93h21.61c2.44,13.72,4.55,27.49,6.54,41.29,3.19,23.83,4.22,47.84,4.78,71.86h.44c.76-24.31,1.12-48.64,1.85-72.95,.46-13.39,.62-26.8,.42-40.2,7.47,0,11.07-.01,18.69,0,.96,51.44-.25,106.91-13.7,156.81Z"/>
    <path class="cls-3" d="M384.2,34.92c2.36,9.66-.5,15.11-7.85,14.63-7.04-.46-12.08-6.54-14.03-16.53-2-10.23,.51-15.33,7.19-14.75,7.33,.63,12.04,5.81,14.69,16.65Zm-16.45,18.46c4.01,3.35,6.44,4.47,10.01,4.69,3.47,.21,6.01-.85,9.03-3.47,8.98,49.33,16.8,106.13,5.52,155.56-7.97-.03-11.96-.04-19.93-.04,9.5-50.44,2.96-106.37-4.62-156.74Z"/>
    <path class="cls-3" d="M452.33,124.86c-.29-.05-.43-.08-.72-.13-3.28-8.91-10.4-23.39-19.25-24.26-11.35-1.12-9.44,26.01-8.92,34.45,.67,10.74,1.77,41.7,15.18,42.57,10.33,.67,13.72-16.95,15.62-25.49,.3,.04,.44,.05,.74,.09,.49,10.05,.44,16.43,.41,23.12-.02,3.07,.33,10.57-.79,18.33-6.7,10.71-13.84,21.22-27.82,21.29-8.96,.04-12.52-4.23-14.95-17.69-4.15-23.03-6.68-46.41-8.14-69.7-.59-9.36-8.46-78.25,15.45-71.63,11.55,3.19,18.05,15.51,24.18,25.13,3.76,14.58,6.7,29.05,9.01,43.92Z"/>
    <path class="cls-3" d="M434.01,39.5c6.02,3.14,8.95,4.87,14.6,8.57,5,7.96,9.56,16.51,13.42,25.08,3.6,8.15,6.87,16.89,9.55,25.95,.26,.09,.39,.14,.65,.23-2.05-9.83-2.75-13.35-2.54-17.22,.24-4.44,1.95-5.22,5.82-3.14,5.29,2.84,11.96,9.2,18.64,17.79,3.06,3.9,6.82,9.68,9.66,15.18,1.29,2.49,3.69,6.73,7.72,19.05,6.72,23.34,13.04,48.67,1.2,71.08-5.42,5.03-8.97,6.93-16.64,8.38,12.08-19.98,5.51-49.55,1.53-70.98-1.74-8.19-3.14-12.29-4.52-15.58-2.27-5.19-5.81-9.23-8.72-10.19-3.09-1.03-4.56,1.86-4.41,8.14,.14,5.8,.99,10.58,2.8,24.4,2.42,22.45,4.57,43.42-4.06,64.65-7.93-.1-11.9-.15-19.84-.24,18.81-52.88-1.47-122.51-24.86-171.16Z"/>
  </g>
</svg>